G75*
%MOIN*%
%OFA0B0*%
%FSLAX25Y25*%
%IPPOS*%
%LPD*%
%AMOC8*
5,1,8,0,0,1.08239X$1,22.5*
%
%ADD10C,0.00000*%
%ADD11R,0.06299X0.02200*%
%ADD12R,0.09843X0.12205*%
%ADD13R,0.34646X0.12992*%
%ADD14R,0.06693X0.07087*%
%ADD15R,0.03740X0.03740*%
%ADD16R,0.09449X0.10236*%
%ADD17R,0.03543X0.05118*%
%ADD18R,0.03150X0.03150*%
%ADD19R,0.02200X0.07800*%
%ADD20R,0.07098X0.06299*%
%ADD21R,0.03937X0.05512*%
%ADD22R,0.07874X0.07874*%
%ADD23R,0.05906X0.05906*%
%ADD24R,0.01339X0.05315*%
%ADD25R,0.05315X0.01339*%
%ADD26R,0.03150X0.03150*%
%ADD27R,0.03740X0.03740*%
%ADD28R,0.06299X0.05906*%
%ADD29R,0.04134X0.03937*%
%ADD30R,0.08661X0.04134*%
%ADD31R,0.03200X0.01200*%
%ADD32R,0.01200X0.03200*%
%ADD33R,0.10200X0.10200*%
%ADD34R,0.10236X0.09449*%
%ADD35R,0.06299X0.07098*%
%ADD36R,0.07087X0.06693*%
%ADD37R,0.04921X0.02362*%
%ADD38R,0.05000X0.02200*%
%ADD39R,0.07800X0.02200*%
%ADD40R,0.02362X0.04921*%
%ADD41R,0.05512X0.03937*%
%ADD42R,0.05118X0.03543*%
D10*
X0000000Y0000000D02*
X0000000Y0393701D01*
X0393701Y0393701D01*
X0393701Y0000000D01*
X0000000Y0000000D01*
D11*
X0352717Y0247343D03*
X0352717Y0252343D03*
X0352717Y0257343D03*
X0352717Y0262343D03*
X0373976Y0262343D03*
X0373976Y0257343D03*
X0373976Y0252343D03*
X0373976Y0247343D03*
D12*
X0363346Y0254843D03*
D13*
X0370000Y0229252D03*
X0370000Y0210748D03*
D14*
X0326220Y0220354D03*
X0326220Y0236496D03*
X0270000Y0336929D03*
X0255000Y0336929D03*
X0255000Y0353071D03*
X0270000Y0353071D03*
X0225000Y0353071D03*
X0210000Y0353071D03*
X0210000Y0336929D03*
X0225000Y0336929D03*
X0170000Y0331929D03*
X0170000Y0348071D03*
X0085000Y0348071D03*
X0085000Y0331929D03*
D15*
X0072697Y0323110D03*
X0066988Y0323110D03*
X0097146Y0320000D03*
X0102854Y0320000D03*
X0118130Y0305000D03*
X0123839Y0305000D03*
X0151634Y0322756D03*
X0157343Y0322756D03*
X0182146Y0320000D03*
X0187854Y0320000D03*
X0205000Y0307854D03*
X0205000Y0302146D03*
X0211398Y0275984D03*
X0217106Y0275984D03*
X0226909Y0275984D03*
X0232618Y0275984D03*
X0252146Y0275000D03*
X0257854Y0275000D03*
X0267146Y0275000D03*
X0272854Y0275000D03*
X0287146Y0285000D03*
X0292854Y0285000D03*
X0302146Y0285000D03*
X0307854Y0285000D03*
X0312421Y0278819D03*
X0318130Y0278819D03*
X0303346Y0273209D03*
X0303346Y0267500D03*
X0303146Y0232000D03*
X0308854Y0232000D03*
X0275000Y0302146D03*
X0275000Y0307854D03*
X0290000Y0312146D03*
X0290000Y0317854D03*
X0305236Y0317776D03*
X0305236Y0312067D03*
X0318858Y0311083D03*
X0318858Y0316791D03*
X0329528Y0316791D03*
X0329528Y0311083D03*
X0385000Y0257933D03*
X0385000Y0252224D03*
X0385000Y0246870D03*
X0385000Y0241161D03*
X0282854Y0137500D03*
X0277146Y0137500D03*
X0261354Y0111000D03*
X0255646Y0111000D03*
X0255500Y0069354D03*
X0255500Y0063646D03*
X0209000Y0065146D03*
X0209000Y0070854D03*
X0194488Y0040256D03*
X0194488Y0034547D03*
X0184252Y0034547D03*
X0184252Y0040256D03*
X0174016Y0040256D03*
X0174016Y0034547D03*
X0147354Y0053500D03*
X0141646Y0053500D03*
X0131354Y0053500D03*
X0125646Y0053500D03*
X0126500Y0077146D03*
X0126500Y0082854D03*
X0116500Y0082854D03*
X0116500Y0077146D03*
X0057854Y0088110D03*
X0052146Y0088110D03*
X0052146Y0098110D03*
X0057854Y0098110D03*
X0056870Y0125906D03*
X0051161Y0125906D03*
X0051161Y0134921D03*
X0056870Y0134921D03*
X0052854Y0180000D03*
X0047146Y0180000D03*
X0035000Y0180177D03*
X0035000Y0185886D03*
X0035000Y0210177D03*
X0035000Y0215886D03*
X0047146Y0210000D03*
X0052854Y0210000D03*
X0058646Y0210000D03*
X0064354Y0210000D03*
X0062146Y0180000D03*
X0067854Y0180000D03*
X0081791Y0177165D03*
X0087500Y0177165D03*
X0091988Y0177165D03*
X0097697Y0177165D03*
X0111500Y0162854D03*
X0111500Y0157146D03*
X0235000Y0302146D03*
X0235000Y0307854D03*
X0245000Y0307854D03*
X0245000Y0302146D03*
X0320000Y0097854D03*
X0320000Y0092146D03*
X0330000Y0092146D03*
X0330000Y0097854D03*
X0037854Y0305000D03*
X0032146Y0305000D03*
D16*
X0340000Y0232598D03*
X0340000Y0207402D03*
D17*
X0338189Y0252362D03*
X0345669Y0252362D03*
X0345669Y0260079D03*
X0338189Y0260079D03*
X0048240Y0219500D03*
X0040760Y0219500D03*
D18*
X0041047Y0236000D03*
X0046953Y0236000D03*
X0047047Y0265000D03*
X0052953Y0265000D03*
X0037953Y0265000D03*
X0032047Y0265000D03*
X0032047Y0315000D03*
X0037953Y0315000D03*
X0057047Y0360000D03*
X0062953Y0360000D03*
X0097047Y0310000D03*
X0102953Y0310000D03*
X0118031Y0315000D03*
X0123937Y0315000D03*
X0142047Y0360000D03*
X0147953Y0360000D03*
X0182047Y0310000D03*
X0187953Y0310000D03*
X0187953Y0265000D03*
X0182047Y0265000D03*
X0137953Y0265000D03*
X0132047Y0265000D03*
X0123937Y0265000D03*
X0118031Y0265000D03*
X0102953Y0265000D03*
X0097047Y0265000D03*
X0126047Y0235500D03*
X0131953Y0235500D03*
X0089921Y0210000D03*
X0084016Y0210000D03*
X0082953Y0140000D03*
X0077047Y0140000D03*
X0070000Y0095157D03*
X0069882Y0090551D03*
X0063976Y0090551D03*
X0064094Y0095157D03*
X0078740Y0077756D03*
X0078740Y0071850D03*
X0090000Y0032953D03*
X0090000Y0027047D03*
X0053000Y0026953D03*
X0053000Y0021047D03*
X0146000Y0020453D03*
X0146000Y0014547D03*
X0174016Y0046260D03*
X0174016Y0052165D03*
X0184252Y0052165D03*
X0184252Y0046260D03*
X0194488Y0046260D03*
X0194488Y0052165D03*
X0246547Y0074500D03*
X0252453Y0074500D03*
X0258547Y0074500D03*
X0264453Y0074500D03*
X0293406Y0107480D03*
X0293406Y0112480D03*
X0300000Y0107500D03*
X0305000Y0107500D03*
X0310000Y0107500D03*
X0315000Y0107500D03*
X0320000Y0107500D03*
X0325000Y0107500D03*
X0330000Y0107500D03*
X0335000Y0107500D03*
X0340000Y0107500D03*
X0345000Y0107500D03*
X0350000Y0107500D03*
X0356575Y0107500D03*
X0356575Y0112500D03*
X0356575Y0117500D03*
X0356575Y0122500D03*
X0356575Y0127500D03*
X0356575Y0132500D03*
X0356575Y0137500D03*
X0356575Y0142500D03*
X0356575Y0147500D03*
X0356575Y0152500D03*
X0356575Y0157500D03*
X0356575Y0162500D03*
X0356575Y0167500D03*
X0356575Y0172500D03*
X0356575Y0177500D03*
X0356575Y0182500D03*
X0350000Y0182500D03*
X0345000Y0182500D03*
X0340000Y0182500D03*
X0335000Y0182500D03*
X0330000Y0182500D03*
X0325000Y0182500D03*
X0320000Y0182500D03*
X0315000Y0182500D03*
X0310000Y0182500D03*
X0305000Y0182500D03*
X0300000Y0182500D03*
X0293406Y0182480D03*
X0293406Y0177480D03*
X0293406Y0172480D03*
X0293406Y0167480D03*
X0293406Y0162480D03*
X0293406Y0157480D03*
X0293406Y0152480D03*
X0293406Y0147480D03*
X0293406Y0142480D03*
X0293406Y0137480D03*
X0293406Y0132480D03*
X0293406Y0127480D03*
X0293406Y0122480D03*
X0293406Y0117480D03*
X0271953Y0111000D03*
X0266047Y0111000D03*
X0365047Y0122500D03*
X0370953Y0122500D03*
X0371953Y0147500D03*
X0371953Y0152500D03*
X0366047Y0152500D03*
X0366047Y0147500D03*
X0366047Y0167500D03*
X0371953Y0167500D03*
X0308953Y0226500D03*
X0303047Y0226500D03*
X0310000Y0260984D03*
X0315906Y0260984D03*
X0367047Y0240984D03*
X0372953Y0240984D03*
X0307087Y0333661D03*
X0307087Y0339567D03*
D19*
X0301516Y0344300D03*
X0296516Y0344300D03*
X0291516Y0344300D03*
X0286516Y0344300D03*
X0286516Y0325700D03*
X0291516Y0325700D03*
X0296516Y0325700D03*
X0301516Y0325700D03*
X0313484Y0325700D03*
X0318484Y0325700D03*
X0323484Y0325700D03*
X0328484Y0325700D03*
X0328484Y0344300D03*
X0323484Y0344300D03*
X0318484Y0344300D03*
X0313484Y0344300D03*
X0267500Y0324300D03*
X0262500Y0324300D03*
X0257500Y0324300D03*
X0252500Y0324300D03*
X0252500Y0305700D03*
X0257500Y0305700D03*
X0262500Y0305700D03*
X0267500Y0305700D03*
X0227500Y0305700D03*
X0222500Y0305700D03*
X0217500Y0305700D03*
X0212500Y0305700D03*
X0212500Y0324300D03*
X0217500Y0324300D03*
X0222500Y0324300D03*
X0227500Y0324300D03*
X0187500Y0294300D03*
X0182500Y0294300D03*
X0177500Y0294300D03*
X0172500Y0294300D03*
X0157500Y0294300D03*
X0152500Y0294300D03*
X0147500Y0294300D03*
X0142500Y0294300D03*
X0132500Y0294300D03*
X0127500Y0294300D03*
X0122500Y0294300D03*
X0117500Y0294300D03*
X0102500Y0294300D03*
X0097500Y0294300D03*
X0092500Y0294300D03*
X0087500Y0294300D03*
X0072500Y0294300D03*
X0067500Y0294300D03*
X0062500Y0294300D03*
X0057500Y0294300D03*
X0047500Y0294300D03*
X0042500Y0294300D03*
X0037500Y0294300D03*
X0032500Y0294300D03*
X0032500Y0275700D03*
X0037500Y0275700D03*
X0042500Y0275700D03*
X0047500Y0275700D03*
X0057500Y0275700D03*
X0062500Y0275700D03*
X0067500Y0275700D03*
X0072500Y0275700D03*
X0087500Y0275700D03*
X0092500Y0275700D03*
X0097500Y0275700D03*
X0102500Y0275700D03*
X0117500Y0275700D03*
X0122500Y0275700D03*
X0127500Y0275700D03*
X0132500Y0275700D03*
X0142500Y0275700D03*
X0147500Y0275700D03*
X0152500Y0275700D03*
X0157500Y0275700D03*
X0172500Y0275700D03*
X0177500Y0275700D03*
X0182500Y0275700D03*
X0187500Y0275700D03*
X0172500Y0254300D03*
X0167500Y0254300D03*
X0162500Y0254300D03*
X0157500Y0254300D03*
X0152500Y0254300D03*
X0147500Y0254300D03*
X0142500Y0254300D03*
X0137500Y0254300D03*
X0137500Y0235700D03*
X0142500Y0235700D03*
X0147500Y0235700D03*
X0152500Y0235700D03*
X0157500Y0235700D03*
X0162500Y0235700D03*
X0167500Y0235700D03*
X0172500Y0235700D03*
X0087500Y0235700D03*
X0082500Y0235700D03*
X0077500Y0235700D03*
X0072500Y0235700D03*
X0067500Y0235700D03*
X0062500Y0235700D03*
X0057500Y0235700D03*
X0052500Y0235700D03*
X0052500Y0254300D03*
X0057500Y0254300D03*
X0062500Y0254300D03*
X0067500Y0254300D03*
X0072500Y0254300D03*
X0077500Y0254300D03*
X0082500Y0254300D03*
X0087500Y0254300D03*
X0072500Y0330700D03*
X0067500Y0330700D03*
X0062500Y0330700D03*
X0057500Y0330700D03*
X0047500Y0330700D03*
X0042500Y0330700D03*
X0037500Y0330700D03*
X0032500Y0330700D03*
X0032500Y0349300D03*
X0037500Y0349300D03*
X0042500Y0349300D03*
X0047500Y0349300D03*
X0057500Y0349300D03*
X0062500Y0349300D03*
X0067500Y0349300D03*
X0072500Y0349300D03*
X0117500Y0349300D03*
X0122500Y0349300D03*
X0127500Y0349300D03*
X0132500Y0349300D03*
X0142500Y0349300D03*
X0147500Y0349300D03*
X0152500Y0349300D03*
X0157500Y0349300D03*
X0157500Y0330700D03*
X0152500Y0330700D03*
X0147500Y0330700D03*
X0142500Y0330700D03*
X0132500Y0330700D03*
X0127500Y0330700D03*
X0122500Y0330700D03*
X0117500Y0330700D03*
X0255500Y0100800D03*
X0260500Y0100800D03*
X0265500Y0100800D03*
X0270500Y0100800D03*
X0270500Y0082200D03*
X0265500Y0082200D03*
X0260500Y0082200D03*
X0255500Y0082200D03*
X0140500Y0038800D03*
X0135500Y0038800D03*
X0130500Y0038800D03*
X0125500Y0038800D03*
X0125500Y0020200D03*
X0130500Y0020200D03*
X0135500Y0020200D03*
X0140500Y0020200D03*
D20*
X0070000Y0149402D03*
X0070000Y0160598D03*
X0100000Y0334402D03*
X0100000Y0345598D03*
X0185000Y0345598D03*
X0185000Y0334402D03*
X0325000Y0295598D03*
X0325000Y0284402D03*
D21*
X0308740Y0295669D03*
X0301260Y0295669D03*
X0293740Y0295669D03*
X0286260Y0295669D03*
X0290000Y0304331D03*
X0305000Y0304331D03*
X0273740Y0285669D03*
X0266260Y0285669D03*
X0258740Y0285669D03*
X0251260Y0285669D03*
X0255000Y0294331D03*
X0270000Y0294331D03*
X0233504Y0285669D03*
X0226024Y0285669D03*
X0217992Y0285669D03*
X0210512Y0285669D03*
X0214252Y0294331D03*
X0229764Y0294331D03*
X0220500Y0071831D03*
X0216760Y0063169D03*
X0224240Y0063169D03*
D22*
X0307283Y0139094D03*
X0319094Y0139094D03*
X0319094Y0150906D03*
X0319094Y0162717D03*
X0330906Y0162717D03*
X0330906Y0150906D03*
X0330906Y0139094D03*
X0307283Y0150906D03*
D23*
X0308268Y0161732D03*
D24*
G36*
X0236289Y0133375D02*
X0235343Y0132429D01*
X0231587Y0136185D01*
X0232533Y0137131D01*
X0236289Y0133375D01*
G37*
G36*
X0234897Y0131983D02*
X0233951Y0131037D01*
X0230195Y0134793D01*
X0231141Y0135739D01*
X0234897Y0131983D01*
G37*
G36*
X0233505Y0130591D02*
X0232559Y0129645D01*
X0228803Y0133401D01*
X0229749Y0134347D01*
X0233505Y0130591D01*
G37*
G36*
X0232113Y0129199D02*
X0231167Y0128253D01*
X0227411Y0132009D01*
X0228357Y0132955D01*
X0232113Y0129199D01*
G37*
G36*
X0230721Y0127807D02*
X0229775Y0126861D01*
X0226019Y0130617D01*
X0226965Y0131563D01*
X0230721Y0127807D01*
G37*
G36*
X0229329Y0126415D02*
X0228383Y0125469D01*
X0224627Y0129225D01*
X0225573Y0130171D01*
X0229329Y0126415D01*
G37*
G36*
X0227937Y0125024D02*
X0226991Y0124078D01*
X0223235Y0127834D01*
X0224181Y0128780D01*
X0227937Y0125024D01*
G37*
G36*
X0226545Y0123632D02*
X0225599Y0122686D01*
X0221843Y0126442D01*
X0222789Y0127388D01*
X0226545Y0123632D01*
G37*
G36*
X0225153Y0122240D02*
X0224207Y0121294D01*
X0220451Y0125050D01*
X0221397Y0125996D01*
X0225153Y0122240D01*
G37*
G36*
X0223761Y0120848D02*
X0222815Y0119902D01*
X0219059Y0123658D01*
X0220005Y0124604D01*
X0223761Y0120848D01*
G37*
G36*
X0222369Y0119456D02*
X0221423Y0118510D01*
X0217667Y0122266D01*
X0218613Y0123212D01*
X0222369Y0119456D01*
G37*
G36*
X0220977Y0118064D02*
X0220031Y0117118D01*
X0216275Y0120874D01*
X0217221Y0121820D01*
X0220977Y0118064D01*
G37*
G36*
X0219585Y0116672D02*
X0218639Y0115726D01*
X0214883Y0119482D01*
X0215829Y0120428D01*
X0219585Y0116672D01*
G37*
G36*
X0218194Y0115280D02*
X0217248Y0114334D01*
X0213492Y0118090D01*
X0214438Y0119036D01*
X0218194Y0115280D01*
G37*
G36*
X0216802Y0113888D02*
X0215856Y0112942D01*
X0212100Y0116698D01*
X0213046Y0117644D01*
X0216802Y0113888D01*
G37*
G36*
X0215410Y0112496D02*
X0214464Y0111550D01*
X0210708Y0115306D01*
X0211654Y0116252D01*
X0215410Y0112496D01*
G37*
G36*
X0214018Y0111104D02*
X0213072Y0110158D01*
X0209316Y0113914D01*
X0210262Y0114860D01*
X0214018Y0111104D01*
G37*
G36*
X0212626Y0109712D02*
X0211680Y0108766D01*
X0207924Y0112522D01*
X0208870Y0113468D01*
X0212626Y0109712D01*
G37*
G36*
X0211234Y0108320D02*
X0210288Y0107374D01*
X0206532Y0111130D01*
X0207478Y0112076D01*
X0211234Y0108320D01*
G37*
G36*
X0209842Y0106928D02*
X0208896Y0105982D01*
X0205140Y0109738D01*
X0206086Y0110684D01*
X0209842Y0106928D01*
G37*
G36*
X0208450Y0105536D02*
X0207504Y0104590D01*
X0203748Y0108346D01*
X0204694Y0109292D01*
X0208450Y0105536D01*
G37*
G36*
X0207058Y0104144D02*
X0206112Y0103198D01*
X0202356Y0106954D01*
X0203302Y0107900D01*
X0207058Y0104144D01*
G37*
G36*
X0205666Y0102752D02*
X0204720Y0101806D01*
X0200964Y0105562D01*
X0201910Y0106508D01*
X0205666Y0102752D01*
G37*
G36*
X0204274Y0101361D02*
X0203328Y0100415D01*
X0199572Y0104171D01*
X0200518Y0105117D01*
X0204274Y0101361D01*
G37*
G36*
X0202882Y0099969D02*
X0201936Y0099023D01*
X0198180Y0102779D01*
X0199126Y0103725D01*
X0202882Y0099969D01*
G37*
G36*
X0201490Y0098577D02*
X0200544Y0097631D01*
X0196788Y0101387D01*
X0197734Y0102333D01*
X0201490Y0098577D01*
G37*
G36*
X0200098Y0097185D02*
X0199152Y0096239D01*
X0195396Y0099995D01*
X0196342Y0100941D01*
X0200098Y0097185D01*
G37*
G36*
X0198706Y0095793D02*
X0197760Y0094847D01*
X0194004Y0098603D01*
X0194950Y0099549D01*
X0198706Y0095793D01*
G37*
G36*
X0197314Y0094401D02*
X0196368Y0093455D01*
X0192612Y0097211D01*
X0193558Y0098157D01*
X0197314Y0094401D01*
G37*
G36*
X0195922Y0093009D02*
X0194976Y0092063D01*
X0191220Y0095819D01*
X0192166Y0096765D01*
X0195922Y0093009D01*
G37*
G36*
X0194530Y0091617D02*
X0193584Y0090671D01*
X0189828Y0094427D01*
X0190774Y0095373D01*
X0194530Y0091617D01*
G37*
G36*
X0193139Y0090225D02*
X0192193Y0089279D01*
X0188437Y0093035D01*
X0189383Y0093981D01*
X0193139Y0090225D01*
G37*
G36*
X0191747Y0088833D02*
X0190801Y0087887D01*
X0187045Y0091643D01*
X0187991Y0092589D01*
X0191747Y0088833D01*
G37*
G36*
X0190355Y0087441D02*
X0189409Y0086495D01*
X0185653Y0090251D01*
X0186599Y0091197D01*
X0190355Y0087441D01*
G37*
G36*
X0188963Y0086049D02*
X0188017Y0085103D01*
X0184261Y0088859D01*
X0185207Y0089805D01*
X0188963Y0086049D01*
G37*
G36*
X0187571Y0084657D02*
X0186625Y0083711D01*
X0182869Y0087467D01*
X0183815Y0088413D01*
X0187571Y0084657D01*
G37*
G36*
X0128413Y0143815D02*
X0127467Y0142869D01*
X0123711Y0146625D01*
X0124657Y0147571D01*
X0128413Y0143815D01*
G37*
G36*
X0129805Y0145207D02*
X0128859Y0144261D01*
X0125103Y0148017D01*
X0126049Y0148963D01*
X0129805Y0145207D01*
G37*
G36*
X0131197Y0146599D02*
X0130251Y0145653D01*
X0126495Y0149409D01*
X0127441Y0150355D01*
X0131197Y0146599D01*
G37*
G36*
X0132589Y0147991D02*
X0131643Y0147045D01*
X0127887Y0150801D01*
X0128833Y0151747D01*
X0132589Y0147991D01*
G37*
G36*
X0133981Y0149383D02*
X0133035Y0148437D01*
X0129279Y0152193D01*
X0130225Y0153139D01*
X0133981Y0149383D01*
G37*
G36*
X0135373Y0150774D02*
X0134427Y0149828D01*
X0130671Y0153584D01*
X0131617Y0154530D01*
X0135373Y0150774D01*
G37*
G36*
X0136765Y0152166D02*
X0135819Y0151220D01*
X0132063Y0154976D01*
X0133009Y0155922D01*
X0136765Y0152166D01*
G37*
G36*
X0138157Y0153558D02*
X0137211Y0152612D01*
X0133455Y0156368D01*
X0134401Y0157314D01*
X0138157Y0153558D01*
G37*
G36*
X0139549Y0154950D02*
X0138603Y0154004D01*
X0134847Y0157760D01*
X0135793Y0158706D01*
X0139549Y0154950D01*
G37*
G36*
X0140941Y0156342D02*
X0139995Y0155396D01*
X0136239Y0159152D01*
X0137185Y0160098D01*
X0140941Y0156342D01*
G37*
G36*
X0142333Y0157734D02*
X0141387Y0156788D01*
X0137631Y0160544D01*
X0138577Y0161490D01*
X0142333Y0157734D01*
G37*
G36*
X0143725Y0159126D02*
X0142779Y0158180D01*
X0139023Y0161936D01*
X0139969Y0162882D01*
X0143725Y0159126D01*
G37*
G36*
X0145117Y0160518D02*
X0144171Y0159572D01*
X0140415Y0163328D01*
X0141361Y0164274D01*
X0145117Y0160518D01*
G37*
G36*
X0146508Y0161910D02*
X0145562Y0160964D01*
X0141806Y0164720D01*
X0142752Y0165666D01*
X0146508Y0161910D01*
G37*
G36*
X0147900Y0163302D02*
X0146954Y0162356D01*
X0143198Y0166112D01*
X0144144Y0167058D01*
X0147900Y0163302D01*
G37*
G36*
X0149292Y0164694D02*
X0148346Y0163748D01*
X0144590Y0167504D01*
X0145536Y0168450D01*
X0149292Y0164694D01*
G37*
G36*
X0150684Y0166086D02*
X0149738Y0165140D01*
X0145982Y0168896D01*
X0146928Y0169842D01*
X0150684Y0166086D01*
G37*
G36*
X0152076Y0167478D02*
X0151130Y0166532D01*
X0147374Y0170288D01*
X0148320Y0171234D01*
X0152076Y0167478D01*
G37*
G36*
X0153468Y0168870D02*
X0152522Y0167924D01*
X0148766Y0171680D01*
X0149712Y0172626D01*
X0153468Y0168870D01*
G37*
G36*
X0154860Y0170262D02*
X0153914Y0169316D01*
X0150158Y0173072D01*
X0151104Y0174018D01*
X0154860Y0170262D01*
G37*
G36*
X0156252Y0171654D02*
X0155306Y0170708D01*
X0151550Y0174464D01*
X0152496Y0175410D01*
X0156252Y0171654D01*
G37*
G36*
X0157644Y0173046D02*
X0156698Y0172100D01*
X0152942Y0175856D01*
X0153888Y0176802D01*
X0157644Y0173046D01*
G37*
G36*
X0159036Y0174438D02*
X0158090Y0173492D01*
X0154334Y0177248D01*
X0155280Y0178194D01*
X0159036Y0174438D01*
G37*
G36*
X0160428Y0175829D02*
X0159482Y0174883D01*
X0155726Y0178639D01*
X0156672Y0179585D01*
X0160428Y0175829D01*
G37*
G36*
X0161820Y0177221D02*
X0160874Y0176275D01*
X0157118Y0180031D01*
X0158064Y0180977D01*
X0161820Y0177221D01*
G37*
G36*
X0163212Y0178613D02*
X0162266Y0177667D01*
X0158510Y0181423D01*
X0159456Y0182369D01*
X0163212Y0178613D01*
G37*
G36*
X0164604Y0180005D02*
X0163658Y0179059D01*
X0159902Y0182815D01*
X0160848Y0183761D01*
X0164604Y0180005D01*
G37*
G36*
X0165996Y0181397D02*
X0165050Y0180451D01*
X0161294Y0184207D01*
X0162240Y0185153D01*
X0165996Y0181397D01*
G37*
G36*
X0167388Y0182789D02*
X0166442Y0181843D01*
X0162686Y0185599D01*
X0163632Y0186545D01*
X0167388Y0182789D01*
G37*
G36*
X0168780Y0184181D02*
X0167834Y0183235D01*
X0164078Y0186991D01*
X0165024Y0187937D01*
X0168780Y0184181D01*
G37*
G36*
X0170171Y0185573D02*
X0169225Y0184627D01*
X0165469Y0188383D01*
X0166415Y0189329D01*
X0170171Y0185573D01*
G37*
G36*
X0171563Y0186965D02*
X0170617Y0186019D01*
X0166861Y0189775D01*
X0167807Y0190721D01*
X0171563Y0186965D01*
G37*
G36*
X0172955Y0188357D02*
X0172009Y0187411D01*
X0168253Y0191167D01*
X0169199Y0192113D01*
X0172955Y0188357D01*
G37*
G36*
X0174347Y0189749D02*
X0173401Y0188803D01*
X0169645Y0192559D01*
X0170591Y0193505D01*
X0174347Y0189749D01*
G37*
G36*
X0175739Y0191141D02*
X0174793Y0190195D01*
X0171037Y0193951D01*
X0171983Y0194897D01*
X0175739Y0191141D01*
G37*
G36*
X0177131Y0192533D02*
X0176185Y0191587D01*
X0172429Y0195343D01*
X0173375Y0196289D01*
X0177131Y0192533D01*
G37*
D25*
G36*
X0187571Y0195343D02*
X0183815Y0191587D01*
X0182869Y0192533D01*
X0186625Y0196289D01*
X0187571Y0195343D01*
G37*
G36*
X0188963Y0193951D02*
X0185207Y0190195D01*
X0184261Y0191141D01*
X0188017Y0194897D01*
X0188963Y0193951D01*
G37*
G36*
X0190355Y0192559D02*
X0186599Y0188803D01*
X0185653Y0189749D01*
X0189409Y0193505D01*
X0190355Y0192559D01*
G37*
G36*
X0191747Y0191167D02*
X0187991Y0187411D01*
X0187045Y0188357D01*
X0190801Y0192113D01*
X0191747Y0191167D01*
G37*
G36*
X0193139Y0189775D02*
X0189383Y0186019D01*
X0188437Y0186965D01*
X0192193Y0190721D01*
X0193139Y0189775D01*
G37*
G36*
X0194530Y0188383D02*
X0190774Y0184627D01*
X0189828Y0185573D01*
X0193584Y0189329D01*
X0194530Y0188383D01*
G37*
G36*
X0195922Y0186991D02*
X0192166Y0183235D01*
X0191220Y0184181D01*
X0194976Y0187937D01*
X0195922Y0186991D01*
G37*
G36*
X0197314Y0185599D02*
X0193558Y0181843D01*
X0192612Y0182789D01*
X0196368Y0186545D01*
X0197314Y0185599D01*
G37*
G36*
X0198706Y0184207D02*
X0194950Y0180451D01*
X0194004Y0181397D01*
X0197760Y0185153D01*
X0198706Y0184207D01*
G37*
G36*
X0200098Y0182815D02*
X0196342Y0179059D01*
X0195396Y0180005D01*
X0199152Y0183761D01*
X0200098Y0182815D01*
G37*
G36*
X0201490Y0181423D02*
X0197734Y0177667D01*
X0196788Y0178613D01*
X0200544Y0182369D01*
X0201490Y0181423D01*
G37*
G36*
X0202882Y0180031D02*
X0199126Y0176275D01*
X0198180Y0177221D01*
X0201936Y0180977D01*
X0202882Y0180031D01*
G37*
G36*
X0204274Y0178639D02*
X0200518Y0174883D01*
X0199572Y0175829D01*
X0203328Y0179585D01*
X0204274Y0178639D01*
G37*
G36*
X0205666Y0177248D02*
X0201910Y0173492D01*
X0200964Y0174438D01*
X0204720Y0178194D01*
X0205666Y0177248D01*
G37*
G36*
X0207058Y0175856D02*
X0203302Y0172100D01*
X0202356Y0173046D01*
X0206112Y0176802D01*
X0207058Y0175856D01*
G37*
G36*
X0208450Y0174464D02*
X0204694Y0170708D01*
X0203748Y0171654D01*
X0207504Y0175410D01*
X0208450Y0174464D01*
G37*
G36*
X0209842Y0173072D02*
X0206086Y0169316D01*
X0205140Y0170262D01*
X0208896Y0174018D01*
X0209842Y0173072D01*
G37*
G36*
X0211234Y0171680D02*
X0207478Y0167924D01*
X0206532Y0168870D01*
X0210288Y0172626D01*
X0211234Y0171680D01*
G37*
G36*
X0212626Y0170288D02*
X0208870Y0166532D01*
X0207924Y0167478D01*
X0211680Y0171234D01*
X0212626Y0170288D01*
G37*
G36*
X0214018Y0168896D02*
X0210262Y0165140D01*
X0209316Y0166086D01*
X0213072Y0169842D01*
X0214018Y0168896D01*
G37*
G36*
X0215410Y0167504D02*
X0211654Y0163748D01*
X0210708Y0164694D01*
X0214464Y0168450D01*
X0215410Y0167504D01*
G37*
G36*
X0216802Y0166112D02*
X0213046Y0162356D01*
X0212100Y0163302D01*
X0215856Y0167058D01*
X0216802Y0166112D01*
G37*
G36*
X0218194Y0164720D02*
X0214438Y0160964D01*
X0213492Y0161910D01*
X0217248Y0165666D01*
X0218194Y0164720D01*
G37*
G36*
X0219585Y0163328D02*
X0215829Y0159572D01*
X0214883Y0160518D01*
X0218639Y0164274D01*
X0219585Y0163328D01*
G37*
G36*
X0220977Y0161936D02*
X0217221Y0158180D01*
X0216275Y0159126D01*
X0220031Y0162882D01*
X0220977Y0161936D01*
G37*
G36*
X0222369Y0160544D02*
X0218613Y0156788D01*
X0217667Y0157734D01*
X0221423Y0161490D01*
X0222369Y0160544D01*
G37*
G36*
X0223761Y0159152D02*
X0220005Y0155396D01*
X0219059Y0156342D01*
X0222815Y0160098D01*
X0223761Y0159152D01*
G37*
G36*
X0225153Y0157760D02*
X0221397Y0154004D01*
X0220451Y0154950D01*
X0224207Y0158706D01*
X0225153Y0157760D01*
G37*
G36*
X0226545Y0156368D02*
X0222789Y0152612D01*
X0221843Y0153558D01*
X0225599Y0157314D01*
X0226545Y0156368D01*
G37*
G36*
X0227937Y0154976D02*
X0224181Y0151220D01*
X0223235Y0152166D01*
X0226991Y0155922D01*
X0227937Y0154976D01*
G37*
G36*
X0229329Y0153584D02*
X0225573Y0149828D01*
X0224627Y0150774D01*
X0228383Y0154530D01*
X0229329Y0153584D01*
G37*
G36*
X0230721Y0152193D02*
X0226965Y0148437D01*
X0226019Y0149383D01*
X0229775Y0153139D01*
X0230721Y0152193D01*
G37*
G36*
X0232113Y0150801D02*
X0228357Y0147045D01*
X0227411Y0147991D01*
X0231167Y0151747D01*
X0232113Y0150801D01*
G37*
G36*
X0233505Y0149409D02*
X0229749Y0145653D01*
X0228803Y0146599D01*
X0232559Y0150355D01*
X0233505Y0149409D01*
G37*
G36*
X0234897Y0148017D02*
X0231141Y0144261D01*
X0230195Y0145207D01*
X0233951Y0148963D01*
X0234897Y0148017D01*
G37*
G36*
X0236289Y0146625D02*
X0232533Y0142869D01*
X0231587Y0143815D01*
X0235343Y0147571D01*
X0236289Y0146625D01*
G37*
G36*
X0177131Y0087467D02*
X0173375Y0083711D01*
X0172429Y0084657D01*
X0176185Y0088413D01*
X0177131Y0087467D01*
G37*
G36*
X0175739Y0088859D02*
X0171983Y0085103D01*
X0171037Y0086049D01*
X0174793Y0089805D01*
X0175739Y0088859D01*
G37*
G36*
X0174347Y0090251D02*
X0170591Y0086495D01*
X0169645Y0087441D01*
X0173401Y0091197D01*
X0174347Y0090251D01*
G37*
G36*
X0172955Y0091643D02*
X0169199Y0087887D01*
X0168253Y0088833D01*
X0172009Y0092589D01*
X0172955Y0091643D01*
G37*
G36*
X0171563Y0093035D02*
X0167807Y0089279D01*
X0166861Y0090225D01*
X0170617Y0093981D01*
X0171563Y0093035D01*
G37*
G36*
X0170171Y0094427D02*
X0166415Y0090671D01*
X0165469Y0091617D01*
X0169225Y0095373D01*
X0170171Y0094427D01*
G37*
G36*
X0168780Y0095819D02*
X0165024Y0092063D01*
X0164078Y0093009D01*
X0167834Y0096765D01*
X0168780Y0095819D01*
G37*
G36*
X0167388Y0097211D02*
X0163632Y0093455D01*
X0162686Y0094401D01*
X0166442Y0098157D01*
X0167388Y0097211D01*
G37*
G36*
X0165996Y0098603D02*
X0162240Y0094847D01*
X0161294Y0095793D01*
X0165050Y0099549D01*
X0165996Y0098603D01*
G37*
G36*
X0164604Y0099995D02*
X0160848Y0096239D01*
X0159902Y0097185D01*
X0163658Y0100941D01*
X0164604Y0099995D01*
G37*
G36*
X0163212Y0101387D02*
X0159456Y0097631D01*
X0158510Y0098577D01*
X0162266Y0102333D01*
X0163212Y0101387D01*
G37*
G36*
X0161820Y0102779D02*
X0158064Y0099023D01*
X0157118Y0099969D01*
X0160874Y0103725D01*
X0161820Y0102779D01*
G37*
G36*
X0160428Y0104171D02*
X0156672Y0100415D01*
X0155726Y0101361D01*
X0159482Y0105117D01*
X0160428Y0104171D01*
G37*
G36*
X0159036Y0105562D02*
X0155280Y0101806D01*
X0154334Y0102752D01*
X0158090Y0106508D01*
X0159036Y0105562D01*
G37*
G36*
X0157644Y0106954D02*
X0153888Y0103198D01*
X0152942Y0104144D01*
X0156698Y0107900D01*
X0157644Y0106954D01*
G37*
G36*
X0156252Y0108346D02*
X0152496Y0104590D01*
X0151550Y0105536D01*
X0155306Y0109292D01*
X0156252Y0108346D01*
G37*
G36*
X0154860Y0109738D02*
X0151104Y0105982D01*
X0150158Y0106928D01*
X0153914Y0110684D01*
X0154860Y0109738D01*
G37*
G36*
X0153468Y0111130D02*
X0149712Y0107374D01*
X0148766Y0108320D01*
X0152522Y0112076D01*
X0153468Y0111130D01*
G37*
G36*
X0152076Y0112522D02*
X0148320Y0108766D01*
X0147374Y0109712D01*
X0151130Y0113468D01*
X0152076Y0112522D01*
G37*
G36*
X0150684Y0113914D02*
X0146928Y0110158D01*
X0145982Y0111104D01*
X0149738Y0114860D01*
X0150684Y0113914D01*
G37*
G36*
X0149292Y0115306D02*
X0145536Y0111550D01*
X0144590Y0112496D01*
X0148346Y0116252D01*
X0149292Y0115306D01*
G37*
G36*
X0147900Y0116698D02*
X0144144Y0112942D01*
X0143198Y0113888D01*
X0146954Y0117644D01*
X0147900Y0116698D01*
G37*
G36*
X0146508Y0118090D02*
X0142752Y0114334D01*
X0141806Y0115280D01*
X0145562Y0119036D01*
X0146508Y0118090D01*
G37*
G36*
X0145117Y0119482D02*
X0141361Y0115726D01*
X0140415Y0116672D01*
X0144171Y0120428D01*
X0145117Y0119482D01*
G37*
G36*
X0143725Y0120874D02*
X0139969Y0117118D01*
X0139023Y0118064D01*
X0142779Y0121820D01*
X0143725Y0120874D01*
G37*
G36*
X0142333Y0122266D02*
X0138577Y0118510D01*
X0137631Y0119456D01*
X0141387Y0123212D01*
X0142333Y0122266D01*
G37*
G36*
X0140941Y0123658D02*
X0137185Y0119902D01*
X0136239Y0120848D01*
X0139995Y0124604D01*
X0140941Y0123658D01*
G37*
G36*
X0139549Y0125050D02*
X0135793Y0121294D01*
X0134847Y0122240D01*
X0138603Y0125996D01*
X0139549Y0125050D01*
G37*
G36*
X0138157Y0126442D02*
X0134401Y0122686D01*
X0133455Y0123632D01*
X0137211Y0127388D01*
X0138157Y0126442D01*
G37*
G36*
X0136765Y0127834D02*
X0133009Y0124078D01*
X0132063Y0125024D01*
X0135819Y0128780D01*
X0136765Y0127834D01*
G37*
G36*
X0135373Y0129225D02*
X0131617Y0125469D01*
X0130671Y0126415D01*
X0134427Y0130171D01*
X0135373Y0129225D01*
G37*
G36*
X0133981Y0130617D02*
X0130225Y0126861D01*
X0129279Y0127807D01*
X0133035Y0131563D01*
X0133981Y0130617D01*
G37*
G36*
X0132589Y0132009D02*
X0128833Y0128253D01*
X0127887Y0129199D01*
X0131643Y0132955D01*
X0132589Y0132009D01*
G37*
G36*
X0131197Y0133401D02*
X0127441Y0129645D01*
X0126495Y0130591D01*
X0130251Y0134347D01*
X0131197Y0133401D01*
G37*
G36*
X0129805Y0134793D02*
X0126049Y0131037D01*
X0125103Y0131983D01*
X0128859Y0135739D01*
X0129805Y0134793D01*
G37*
G36*
X0128413Y0136185D02*
X0124657Y0132429D01*
X0123711Y0133375D01*
X0127467Y0137131D01*
X0128413Y0136185D01*
G37*
D26*
G36*
X0119588Y0145139D02*
X0121815Y0142912D01*
X0119588Y0140685D01*
X0117361Y0142912D01*
X0119588Y0145139D01*
G37*
G36*
X0115412Y0149315D02*
X0117639Y0147088D01*
X0115412Y0144861D01*
X0113185Y0147088D01*
X0115412Y0149315D01*
G37*
G36*
X0116185Y0150412D02*
X0118412Y0152639D01*
X0120639Y0150412D01*
X0118412Y0148185D01*
X0116185Y0150412D01*
G37*
G36*
X0120361Y0154588D02*
X0122588Y0156815D01*
X0124815Y0154588D01*
X0122588Y0152361D01*
X0120361Y0154588D01*
G37*
G36*
X0139639Y0169912D02*
X0137412Y0167685D01*
X0135185Y0169912D01*
X0137412Y0172139D01*
X0139639Y0169912D01*
G37*
G36*
X0143815Y0174088D02*
X0141588Y0171861D01*
X0139361Y0174088D01*
X0141588Y0176315D01*
X0143815Y0174088D01*
G37*
G36*
X0151639Y0183912D02*
X0149412Y0181685D01*
X0147185Y0183912D01*
X0149412Y0186139D01*
X0151639Y0183912D01*
G37*
G36*
X0155815Y0188088D02*
X0153588Y0185861D01*
X0151361Y0188088D01*
X0153588Y0190315D01*
X0155815Y0188088D01*
G37*
G36*
X0185412Y0207815D02*
X0187639Y0205588D01*
X0185412Y0203361D01*
X0183185Y0205588D01*
X0185412Y0207815D01*
G37*
G36*
X0189588Y0203639D02*
X0191815Y0201412D01*
X0189588Y0199185D01*
X0187361Y0201412D01*
X0189588Y0203639D01*
G37*
G36*
X0192412Y0196361D02*
X0190185Y0198588D01*
X0192412Y0200815D01*
X0194639Y0198588D01*
X0192412Y0196361D01*
G37*
G36*
X0196588Y0192185D02*
X0194361Y0194412D01*
X0196588Y0196639D01*
X0198815Y0194412D01*
X0196588Y0192185D01*
G37*
G36*
X0204912Y0183861D02*
X0202685Y0186088D01*
X0204912Y0188315D01*
X0207139Y0186088D01*
X0204912Y0183861D01*
G37*
G36*
X0209088Y0179685D02*
X0206861Y0181912D01*
X0209088Y0184139D01*
X0211315Y0181912D01*
X0209088Y0179685D01*
G37*
G36*
X0219912Y0170861D02*
X0217685Y0173088D01*
X0219912Y0175315D01*
X0222139Y0173088D01*
X0219912Y0170861D01*
G37*
G36*
X0224088Y0166685D02*
X0221861Y0168912D01*
X0224088Y0171139D01*
X0226315Y0168912D01*
X0224088Y0166685D01*
G37*
G36*
X0236412Y0150861D02*
X0234185Y0153088D01*
X0236412Y0155315D01*
X0238639Y0153088D01*
X0236412Y0150861D01*
G37*
G36*
X0240588Y0146685D02*
X0238361Y0148912D01*
X0240588Y0151139D01*
X0242815Y0148912D01*
X0240588Y0146685D01*
G37*
G36*
X0245547Y0126234D02*
X0243320Y0124007D01*
X0241093Y0126234D01*
X0243320Y0128461D01*
X0245547Y0126234D01*
G37*
G36*
X0249815Y0122588D02*
X0247588Y0120361D01*
X0245361Y0122588D01*
X0247588Y0124815D01*
X0249815Y0122588D01*
G37*
G36*
X0245639Y0118412D02*
X0243412Y0116185D01*
X0241185Y0118412D01*
X0243412Y0120639D01*
X0245639Y0118412D01*
G37*
G36*
X0241371Y0122059D02*
X0239144Y0119832D01*
X0236917Y0122059D01*
X0239144Y0124286D01*
X0241371Y0122059D01*
G37*
G36*
X0235022Y0112881D02*
X0232795Y0110654D01*
X0230568Y0112881D01*
X0232795Y0115108D01*
X0235022Y0112881D01*
G37*
G36*
X0230846Y0108705D02*
X0228619Y0106478D01*
X0226392Y0108705D01*
X0228619Y0110932D01*
X0230846Y0108705D01*
G37*
G36*
X0222689Y0104709D02*
X0224916Y0106936D01*
X0227143Y0104709D01*
X0224916Y0102482D01*
X0222689Y0104709D01*
G37*
G36*
X0218514Y0100533D02*
X0220741Y0102760D01*
X0222968Y0100533D01*
X0220741Y0098306D01*
X0218514Y0100533D01*
G37*
G36*
X0212361Y0101588D02*
X0214588Y0103815D01*
X0216815Y0101588D01*
X0214588Y0099361D01*
X0212361Y0101588D01*
G37*
G36*
X0208185Y0097412D02*
X0210412Y0099639D01*
X0212639Y0097412D01*
X0210412Y0095185D01*
X0208185Y0097412D01*
G37*
G36*
X0206315Y0090088D02*
X0204088Y0087861D01*
X0201861Y0090088D01*
X0204088Y0092315D01*
X0206315Y0090088D01*
G37*
G36*
X0202139Y0085912D02*
X0199912Y0083685D01*
X0197685Y0085912D01*
X0199912Y0088139D01*
X0202139Y0085912D01*
G37*
G36*
X0150588Y0100639D02*
X0152815Y0098412D01*
X0150588Y0096185D01*
X0148361Y0098412D01*
X0150588Y0100639D01*
G37*
G36*
X0146412Y0104815D02*
X0148639Y0102588D01*
X0146412Y0100361D01*
X0144185Y0102588D01*
X0146412Y0104815D01*
G37*
G36*
X0134861Y0112588D02*
X0137088Y0114815D01*
X0139315Y0112588D01*
X0137088Y0110361D01*
X0134861Y0112588D01*
G37*
G36*
X0130685Y0108412D02*
X0132912Y0110639D01*
X0135139Y0108412D01*
X0132912Y0106185D01*
X0130685Y0108412D01*
G37*
D27*
G36*
X0157626Y0082982D02*
X0154982Y0080338D01*
X0152338Y0082982D01*
X0154982Y0085626D01*
X0157626Y0082982D01*
G37*
G36*
X0161662Y0087018D02*
X0159018Y0084374D01*
X0156374Y0087018D01*
X0159018Y0089662D01*
X0161662Y0087018D01*
G37*
G36*
X0225131Y0165482D02*
X0227775Y0168126D01*
X0230419Y0165482D01*
X0227775Y0162838D01*
X0225131Y0165482D01*
G37*
G36*
X0229167Y0169518D02*
X0231811Y0172162D01*
X0234455Y0169518D01*
X0231811Y0166874D01*
X0229167Y0169518D01*
G37*
G36*
X0253602Y0118872D02*
X0250958Y0116228D01*
X0248314Y0118872D01*
X0250958Y0121516D01*
X0253602Y0118872D01*
G37*
G36*
X0249565Y0114835D02*
X0246921Y0112191D01*
X0244277Y0114835D01*
X0246921Y0117479D01*
X0249565Y0114835D01*
G37*
D28*
G36*
X0235584Y0105995D02*
X0240036Y0101543D01*
X0235860Y0097367D01*
X0231408Y0101819D01*
X0235584Y0105995D01*
G37*
G36*
X0229457Y0090964D02*
X0225005Y0095416D01*
X0229181Y0099592D01*
X0233633Y0095140D01*
X0229457Y0090964D01*
G37*
G36*
X0236416Y0084005D02*
X0231964Y0088457D01*
X0236140Y0092633D01*
X0240592Y0088181D01*
X0236416Y0084005D01*
G37*
G36*
X0242543Y0099036D02*
X0246995Y0094584D01*
X0242819Y0090408D01*
X0238367Y0094860D01*
X0242543Y0099036D01*
G37*
D29*
X0377496Y0122500D03*
D30*
X0383500Y0114626D03*
X0383500Y0130374D03*
D31*
X0077800Y0034900D03*
X0077800Y0033000D03*
X0077800Y0031000D03*
X0077800Y0029000D03*
X0077800Y0027000D03*
X0077800Y0025100D03*
X0062200Y0025100D03*
X0062200Y0027000D03*
X0062200Y0029000D03*
X0062200Y0031000D03*
X0062200Y0033000D03*
X0062200Y0034900D03*
D32*
X0065100Y0037800D03*
X0067000Y0037800D03*
X0069000Y0037800D03*
X0071000Y0037800D03*
X0073000Y0037800D03*
X0074900Y0037800D03*
X0074900Y0022200D03*
X0073000Y0022200D03*
X0071000Y0022200D03*
X0069000Y0022200D03*
X0067000Y0022200D03*
X0065100Y0022200D03*
D33*
X0069900Y0030000D03*
D34*
X0057402Y0310000D03*
X0082598Y0310000D03*
X0142402Y0310000D03*
X0167598Y0310000D03*
D35*
X0303402Y0241000D03*
X0314598Y0241000D03*
D36*
X0360118Y0275984D03*
X0376260Y0275984D03*
X0313150Y0355000D03*
X0297008Y0355000D03*
D37*
X0244921Y0352756D03*
X0244921Y0349016D03*
X0244921Y0345276D03*
X0235079Y0345276D03*
X0235079Y0349016D03*
X0235079Y0352756D03*
X0174921Y0356260D03*
X0174921Y0360000D03*
X0174921Y0363740D03*
X0165079Y0363740D03*
X0165079Y0360000D03*
X0165079Y0356260D03*
X0089921Y0356260D03*
X0089921Y0360000D03*
X0089921Y0363740D03*
X0080079Y0363740D03*
X0080079Y0360000D03*
X0080079Y0356260D03*
D38*
X0309821Y0273700D03*
X0309821Y0266300D03*
X0320021Y0266300D03*
X0320021Y0270000D03*
X0320021Y0273700D03*
D39*
X0104300Y0162500D03*
X0104300Y0157500D03*
X0104300Y0152500D03*
X0104300Y0147500D03*
X0085700Y0147500D03*
X0085700Y0152500D03*
X0085700Y0157500D03*
X0085700Y0162500D03*
X0089300Y0187500D03*
X0089300Y0192500D03*
X0089300Y0197500D03*
X0089300Y0202500D03*
X0070700Y0202500D03*
X0070700Y0197500D03*
X0070700Y0192500D03*
X0070700Y0187500D03*
X0070284Y0076594D03*
X0070284Y0071594D03*
X0070284Y0066594D03*
X0070284Y0061594D03*
X0051684Y0061594D03*
X0051684Y0066594D03*
X0051684Y0071594D03*
X0051684Y0076594D03*
D40*
X0042126Y0087598D03*
X0038386Y0087598D03*
X0034646Y0087598D03*
X0034646Y0097441D03*
X0038386Y0097441D03*
X0042126Y0097441D03*
X0041496Y0125236D03*
X0037756Y0125236D03*
X0034016Y0125236D03*
X0034016Y0135079D03*
X0037756Y0135079D03*
X0041496Y0135079D03*
X0046260Y0190079D03*
X0050000Y0190079D03*
X0053740Y0190079D03*
X0053740Y0199921D03*
X0050000Y0199921D03*
X0046260Y0199921D03*
D41*
X0040669Y0158740D03*
X0040669Y0151260D03*
X0049331Y0155000D03*
D42*
X0203740Y0321063D03*
X0203740Y0328543D03*
X0280000Y0328740D03*
X0280000Y0321260D03*
M02*
