%
M48
M72
T01C0.01969
T02C0.04000
T03C0.04331
T04C0.04500
T05C0.04724
T06C0.07874
T07C0.10236
%
T01
X362500Y172500
X362500Y182500
X363000Y127500
X367000Y127500
X371000Y127500
X373500Y130500
X363000Y117500
X367000Y117500
X371000Y117500
X373500Y114500
X278000Y111500
X278000Y119000
X278000Y128000
X270500Y136500
X251500Y136500
X251500Y128000
X257500Y119591
X261000Y92287
X270118Y92287
X250000Y80000
X270500Y74500
X142772Y105965
X149500Y81500
X180067Y83154
X126000Y108000
X151000Y119500
X163000Y110000
X150500Y138500
X179000Y109000
X190000Y99500
X182500Y127000
X170500Y137500
X196000Y139500
X192000Y121500
X203000Y132500
X219000Y150000
X212000Y156000
X190173Y151827
X186000Y149000
X188500Y179000
X154677Y164953
X244000Y145500
X270500Y145500
X278500Y158500
X294091Y188622
X269378Y172488
X245315Y200146
X229681Y175484
X236500Y166000
X362500Y157000
X75500Y93500
X78500Y82500
X100000Y83000
X100000Y87500
X84500Y82500
X42000Y92500
X35000Y92500
X34000Y130000
X41500Y130000
X53500Y195000
X46500Y195000
X97000Y205000
X70500Y206500
X78000Y188000
X111000Y182500
X121000Y195500
X114500Y202000
X130000Y161500
X104000Y174000
X115000Y153500
X145000Y178000
X155500Y184000
X153988Y206720
X175500Y199000
X149000Y229500
X178000Y235500
X121000Y235500
X57000Y215000
X92000Y235500
X80197Y220803
X36000Y236000
X41000Y214000
X55000Y155000
X59000Y155000
X63000Y155000
X88000Y139500
X78000Y162500
X76500Y118500
X62000Y118000
X62000Y114000
X76500Y122500
X84500Y87000
X99500Y60500
X84500Y60500
X44000Y62000
X53000Y16000
X87500Y38000
X108000Y41500
X107500Y49500
X89500Y22000
X108000Y26000
X140500Y13000
X136500Y54000
X152500Y41500
X157000Y41500
X157000Y26500
X152500Y26500
X209000Y41500
X204500Y41500
X226000Y41500
X230500Y41500
X226000Y26500
X230500Y26500
X209000Y26500
X204500Y26500
X226500Y72000
X204500Y77500
X249000Y66000
X278500Y89500
X278500Y85500
X292500Y85500
X292500Y89500
X191500Y219500
X191500Y230500
X207500Y215000
X207500Y220500
X225500Y220500
X225500Y215000
X199500Y266000
X199500Y294500
X199500Y313500
X200000Y337500
X236500Y324500
X243000Y324500
X239969Y294500
X243500Y294500
X222000Y295000
X222000Y275500
X238000Y275500
X262500Y275000
X278000Y275000
X262500Y294500
X278500Y294500
X297500Y285000
X298500Y305000
X315500Y299000
X339000Y299000
X339000Y295000
X339000Y291000
X324000Y278000
X328000Y278000
X326500Y269500
X312283Y289024
X293500Y275500
X270500Y257000
X270500Y266500
X225500Y257000
X256370Y215091
X261291Y219394
X281000Y214500
X316000Y215000
X316000Y234000
X308500Y249000
X297197Y237390
X326500Y243500
X330500Y243500
X334500Y243500
X338000Y241000
X342000Y241000
X346000Y241000
X360000Y264000
X363500Y264000
X367000Y264000
X362000Y245500
X362000Y242000
X363000Y238500
X378000Y240000
X333500Y257000
X333500Y253000
X333500Y249000
X331500Y230000
X331500Y226000
X383500Y279500
X383500Y276000
X383500Y272000
X390000Y258000
X390000Y254000
X390000Y200000
X386000Y200000
X348500Y200500
X348500Y192000
X197500Y189000
X183500Y211000
X190500Y206500
X157500Y203500
X149000Y211500
X137992Y220760
X127165Y220760
X122244Y229421
X114567Y211705
X322122Y190425
X253421Y173299
X250075Y200071
X245346Y215091
X299484Y188654
X304996Y188654
X155602Y97642
X350272Y100130
X115035Y135169
X103421Y135169
X100272Y121390
X89445Y121193
X100469Y106232
X87280Y106429
X30980Y111744
X30783Y145406
X72319Y143634
X31571Y169421
X73697Y179854
X88264Y183201
X12870Y249146
X328028Y377098
X334917Y383791
X342004Y376902
X334917Y370012
X240035Y352689
X240035Y345209
X389642Y110169
X390035Y134579
X273118Y330209
X284339Y307374
X333354Y335917
X335717Y332768
X336898Y328634
X337094Y323909
X339197Y272299
X239969Y308083
X239969Y304539
X239772Y321665
X277055Y333949
X277055Y337689
X277055Y341429
X262488Y298122
X283945Y217807
X286898Y221154
X316031Y219382
X240244Y200091
X191622Y234933
X207567Y224500
X166425Y177256
X176465Y187098
X229417Y122335
X215835Y107965
X228236Y115248
X207059Y93839
X209815Y56240
X224776Y52303
X57256Y23957
X57256Y30059
X118630Y19898
X285500Y207500
X89724Y71803
X101012Y35012
X91480Y50500
X146000Y34161
X147000Y45000
X118500Y49500
X69000Y136500
X61000Y126000
X132000Y216500
X53500Y219500
X94500Y210000
X263250Y54250
X217500Y94000
X217500Y83500
X285500Y123000
X158500Y123500
X168750Y169250
X198250Y198750
X225000Y208000
X228500Y139000
X212000Y121500
X202500Y112000
X306500Y261000
X320000Y247500
X122000Y140500
X148425Y159055
X217717Y49606
X158465Y364173
X158465Y357283
X170276Y338583
X145669Y341535
X178150Y328740
X162402Y328740
X190945Y328740
X137795Y328740
X133858Y310039
X133858Y313976
X133858Y306102
X137795Y275591
X127756Y268701
X177165Y254921
X190945Y248031
X115157Y248031
X177165Y302165
X162402Y295276
X126969Y339567
X123031Y339567
X177165Y371063
X146654Y371063
X136811Y356299
X137795Y294291
X165354Y347441
X175197Y347441
X124016Y323819
X167323Y275591
X134843Y319882
X162402Y273622
X152559Y268701
X182087Y269685
X162402Y287894
X171752Y287894
X212598Y314961
X222441Y314961
X240157Y314961
X251969Y314961
X262795Y314961
X285433Y314961
X297244Y314961
X279528Y314961
X173500Y143500
X216272Y192224
X172500Y147500
X212000Y192500
X171500Y151500
X208000Y192500
X171000Y156000
X204000Y192500
X252000Y105500
X278500Y105500
X315000Y102000
X364000Y142500
X126000Y60500
X145000Y60500
X245500Y135000
X239500Y138000
X261500Y160000
X274000Y160000
X269500Y156000
X254500Y156500
X252000Y153500
X266000Y153000
X259000Y145000
X248500Y147000
X242000Y131500
X234000Y139500
X129500Y45500
X140500Y45500
X92520Y370079
X62008Y370079
X52165Y356299
X37402Y339567
X42323Y339567
X52165Y328740
X77756Y328740
X93504Y328740
X106299Y328740
X106299Y248031
X29528Y248031
X42520Y268898
X53150Y275591
X49213Y313976
X49213Y310039
X49213Y306102
X76772Y294291
X92520Y254921
X92520Y302165
X52165Y294291
X79724Y347441
X90551Y347441
X73819Y365157
X73819Y357283
X84646Y338583
X60039Y342520
X67913Y267717
X97441Y269685
X50197Y319882
X77756Y273622
X39370Y323819
X82677Y276575
X76772Y287894
X87598Y287894
X160433Y200591
X167171Y207329
X163976Y197835
X177362Y211220
X144000Y138500
X75500Y213000
X118000Y180000
X122500Y184500
X131000Y176000
X148031Y141929
X138500Y143500
X71500Y214500
X166500Y125000
X218000Y176500
X170500Y121500
X221500Y179760
X177500Y97500
X246000Y165500
X180500Y95000
X246000Y160500
X193500Y116500
X90000Y111500
X188000Y118500
X90000Y115500
X89500Y131000
X144000Y131000
X89500Y126500
X151000Y131500
X184500Y121500
X236500Y173500
X42323Y79724
X104500Y189500
X129500Y189500
X107500Y186500
X133000Y186500
X112000Y122500
X126500Y122500
X112000Y118000
X126500Y118000
X112000Y104000
X127500Y104000
X198622Y169685
X277559Y186614
X197441Y165354
X274409Y193504
X197244Y161024
X275984Y198031
X196850Y156890
X277559Y182677
X174016Y68307
X174016Y55906
X184252Y67717
X184252Y55906
T02
X156500Y68500
X166500Y68500
X106500Y68500
X116500Y68500
X126500Y68500
X136500Y68500
X146500Y68500
X123622Y204134
X133622Y204134
X143622Y204134
T03
X295000Y376969
X315000Y376969
X335000Y376969
X355000Y376969
T04
X190000Y380000
X180000Y380000
X170000Y380000
X160000Y380000
X150000Y380000
X140000Y380000
X130000Y380000
X120000Y380000
X275000Y380000
X265000Y380000
X255000Y380000
X245000Y380000
X235000Y380000
X225000Y380000
X215000Y380000
X205000Y380000
X105000Y380000
X95000Y380000
X85000Y380000
X75000Y380000
X65000Y380000
X55000Y380000
X45000Y380000
X35000Y380000
X15000Y135000
X15000Y125000
X15000Y115000
X15000Y105000
X15000Y95000
X15000Y85000
X15000Y75000
X15000Y65000
X15000Y220000
X15000Y210000
X15000Y200000
X15000Y190000
X15000Y180000
X15000Y170000
X15000Y160000
X15000Y150000
T05
X344724Y305236
X344724Y334764
T06
X385276Y305236
X385276Y334764
T07
X381850Y381850
X11850Y381850
X381850Y11850
X11850Y11850
X236220Y236220
M30
