G75*
%MOIN*%
%OFA0B0*%
%FSLAX25Y25*%
%IPPOS*%
%LPD*%
%AMOC8*
5,1,8,0,0,1.08239X$1,22.5*
%
%ADD10C,0.00000*%
%ADD11R,0.07150X0.07150*%
%ADD12C,0.07150*%
%ADD13R,0.08274X0.08274*%
%ADD14C,0.08274*%
%ADD15R,0.06400X0.06400*%
%ADD16C,0.06400*%
%ADD17C,0.07487*%
%ADD18C,0.12211*%
%ADD19R,0.22054X0.22054*%
D10*
X0000000Y0000000D02*
X0000000Y0393701D01*
X0393701Y0393701D01*
X0393701Y0000000D01*
X0000000Y0000000D01*
D11*
X0015000Y0135000D03*
X0015000Y0220000D03*
X0105000Y0380000D03*
X0190000Y0380000D03*
X0275000Y0380000D03*
D12*
X0265000Y0380000D03*
X0255000Y0380000D03*
X0245000Y0380000D03*
X0235000Y0380000D03*
X0225000Y0380000D03*
X0215000Y0380000D03*
X0205000Y0380000D03*
X0180000Y0380000D03*
X0170000Y0380000D03*
X0160000Y0380000D03*
X0150000Y0380000D03*
X0140000Y0380000D03*
X0130000Y0380000D03*
X0120000Y0380000D03*
X0095000Y0380000D03*
X0085000Y0380000D03*
X0075000Y0380000D03*
X0065000Y0380000D03*
X0055000Y0380000D03*
X0045000Y0380000D03*
X0035000Y0380000D03*
X0015000Y0210000D03*
X0015000Y0200000D03*
X0015000Y0190000D03*
X0015000Y0180000D03*
X0015000Y0170000D03*
X0015000Y0160000D03*
X0015000Y0150000D03*
X0015000Y0125000D03*
X0015000Y0115000D03*
X0015000Y0105000D03*
X0015000Y0095000D03*
X0015000Y0085000D03*
X0015000Y0075000D03*
X0015000Y0065000D03*
D13*
X0295000Y0376969D03*
X0335000Y0376969D03*
D14*
X0315000Y0376969D03*
X0355000Y0376969D03*
D15*
X0123622Y0204134D03*
X0106500Y0068500D03*
X0156500Y0068500D03*
D16*
X0146500Y0068500D03*
X0136500Y0068500D03*
X0126500Y0068500D03*
X0116500Y0068500D03*
X0166500Y0068500D03*
X0143622Y0204134D03*
X0133622Y0204134D03*
D17*
X0344724Y0305236D03*
X0344724Y0334764D03*
D18*
X0385276Y0334764D03*
X0385276Y0305236D03*
D19*
X0381850Y0381850D03*
X0236220Y0236220D03*
X0381850Y0011850D03*
X0011850Y0011850D03*
X0011850Y0381850D03*
M02*
